Coordinates
version=1
nRows=30
nColumns=19
inDegrees=yes

Units are S.I. units (second, meters, Newtons, ...)
If the header above contains a line with 'inDegrees', this indicates whether rotational values are in degrees (yes) or radians (no).

endheader
time	pelvis_tilt	pelvis_list	pelvis_rotation	pelvis_tx	pelvis_ty	pelvis_tz	hip_flexion_r	hip_adduction_r	hip_rotation_r	knee_angle_r	knee_angle_r_beta	ankle_angle_r	hip_flexion_l	hip_adduction_l	hip_rotation_l	knee_angle_l	knee_angle_l_beta	ankle_angle_l
     13.36666667	     -9.02359840	      5.10094055	      9.35819947	      2.20719604	      1.04829944	      0.98444389	    -12.66747629	     -9.95708908	    -20.88206739	     58.86702449	      1.02742340	    -20.04523905	     34.47499958	     10.88562620	     -0.96897863	     11.78569951	      0.20569926	      7.40319559
     13.37333333	     -7.78555916	      5.26820659	      9.53587706	      2.20568189	      1.04544492	      0.98498189	    -12.72925366	    -10.28862532	    -20.77343830	     62.13792539	      1.08451139	    -19.21335023	     33.76788549	     10.74732346	     -1.61565194	     14.49226256	      0.25293770	      7.18768624
     13.38000000	     -6.86628228	      5.29605194	      9.56717418	      2.20401023	      1.04163916	      0.98577343	    -12.20700598	    -10.56796703	    -20.38620401	     65.49190639	      1.14304940	    -18.40070302	     33.62890870	     10.35067528	     -2.48136862	     17.88322823	      0.31212121	      7.19342533
     13.38666667	     -6.35170610	      5.04210572	      9.58664955	      2.20211850	      1.03695785	      0.98684336	    -10.99429259	    -10.50206416	    -19.69556668	     68.85754499	      1.20179087	    -17.39244197	     34.06878005	      9.65859111	     -3.19807191	     21.73350029	      0.37932114	      7.07912967
     13.39333333	     -5.55799026	      4.93243154	      9.66481742	      2.20016294	      1.03234151	      0.98810157	    -10.07451763	    -10.52877650	    -19.18545416	     72.08129878	      1.25805599	    -16.35586703	     34.14288361	      9.06086121	     -3.73680431	     25.70536603	      0.44864327	      7.06331915
     13.40000000	     -4.39528550	      5.20848975	      9.84688781	      2.19823461	      1.02805869	      0.98940241	     -9.65074254	    -10.94828685	    -19.00101630	     75.14059548	      1.31145079	    -15.35152261	     33.62230052	      8.83074714	     -4.09785053	     29.57883385	      0.51624804	      7.25220508
     13.40666667	     -4.32042015	      4.65572153	      9.78034856	      2.19592000	      1.02238979	      0.99116026	     -7.44047312	    -10.43700155	    -17.91081584	     78.31219855	      1.36680571	    -14.34123916	     34.45030264	      7.82366335	     -4.21719395	     33.73006391	      0.58870067	      7.79890951
     13.41333333	     -3.39099425	      4.99358081	      9.99381376	      2.19387359	      1.01802202	      0.99261512	     -6.55182589	    -10.95001361	    -17.71326576	     81.17176328	      1.41671453	    -13.49854107	     33.85976907	      7.76200419	     -4.16973662	     37.32360009	      0.65141971	      8.66771272
     13.42000000	     -3.79247806	      4.39734308	     10.01280881	      2.19133073	      1.01220585	      0.99434002	     -3.58863586	    -10.42855128	    -16.69682636	     84.13034813	      1.46835158	    -12.62264023	     34.82927491	      6.93866246	     -3.81161586	     41.01574038	      0.71585971	      9.87333617
     13.42666667	     -3.81735306	      4.31731127	     10.14636981	      2.18889929	      1.00741518	      0.99583977	     -1.18729401	    -10.54790954	    -16.10875291	     86.82334963	      1.51535332	    -11.92663184	     34.94303127	      6.67405209	     -3.43343216	     44.12623056	      0.77014801	     11.44520265
     13.43333333	     -4.01043048	      4.24267533	     10.28012753	      2.18641632	      1.00302361	      0.99722913	      1.50118666	    -10.72090921	    -15.52706707	     89.31833709	      1.55889906	    -11.34029691	     34.93892452	      6.48502884	     -2.98269081	     46.79803745	      0.81677984	     13.32567637
     13.44000000	     -4.33853658	      4.17193459	     10.37808343	      2.18391455	      0.99918760	      0.99851246	      4.43676563	    -10.93912842	    -14.92050370	     91.57217603	      1.59823597	    -10.84672467	     34.75345000	      6.33577905	     -2.50999323	     48.97011956	      0.85468982	     15.42979116
     13.44666667	     -4.81225648	      4.05610193	     10.44791976	      2.18141343	      0.99588578	      0.99963962	      7.61575082	    -11.16639703	    -14.32624255	     93.55222544	      1.63279436	    -10.41680787	     34.41517476	      6.15825923	     -2.04879875	     50.65749854	      0.88414014	     17.67231663
     13.45333333	     -5.33497634	      3.91310742	     10.44254944	      2.17904606	      0.99328966	      1.00060218	     10.90293096	    -11.38954194	    -13.71882708	     95.21492632	      1.66181396	    -10.02902056	     33.80149270	      5.93177617	     -1.62251263	     51.81957418	      0.90442219	     19.96691478
     13.46000000	     -5.87418683	      3.70676055	     10.34988913	      2.17682332	      0.99146899	      1.00141445	     14.23901570	    -11.54091459	    -13.11308790	     96.50976703	      1.68441320	     -9.62513599	     32.90200814	      5.61253549	     -1.21616127	     52.47178502	      0.91580541	     22.20864680
     13.46666667	     -5.80627190	      3.53778033	     10.33622374	      2.17491342	      0.99123559	      1.00177898	     16.73894245	    -11.72999774	    -12.83192044	     97.28922086	      1.69801723	     -9.16842060	     31.02216684	      5.32893083	     -0.59926906	     52.58809239	      0.91783536	     24.36391081
     13.47333333	     -6.60832600	      3.17480589	      9.80176334	      2.17325140	      0.99052872	      1.00259058	     20.43553053	    -11.59015739	    -11.97533791	     97.87640867	      1.70826559	     -8.63740035	     29.88982556	      4.61285932	     -0.68801741	     52.33558587	      0.91342829	     26.15628283
     13.48000000	     -6.80409424	      2.75656915	      9.49378848	      2.17197364	      0.99129096	      1.00268350	     23.15956604	    -11.47420108	    -11.70937388	     97.90809564	      1.70881863	     -8.03380089	     27.87095089	      3.97019892	     -0.34006924	     51.66102829	      0.90165504	     27.74785760
     13.48666667	     -6.96931730	      2.28319567	      9.03285838	      2.17109105	      0.99274544	      1.00268712	     25.74430999	    -11.21298947	    -11.45321897	     97.53894535	      1.70237575	     -7.36244749	     25.62818756	      3.18867950	     -0.19882567	     50.61659793	      0.88342629	     28.93541066
     13.49333333	     -6.95885250	      1.76865298	      8.32549707	      2.17069994	      0.99506110	      1.00277659	     28.00954859	    -10.76733153	    -11.18863108	     96.75625894	      1.68871529	     -6.63332140	     23.00524684	      2.24144372	     -0.34514778	     49.22362917	      0.85911440	     29.56221856
     13.50000000	     -6.67424727	      1.22922161	      7.59019672	      2.17080700	      0.99827346	      1.00265080	     29.72925931	    -10.27003867	    -11.15550629	     95.55928726	      1.66782419	     -5.82618598	     19.92022620	      1.26978545	     -0.58482407	     47.51073179	      0.82921870	     29.76014519
     13.50666667	     -5.93871867	      0.72195226	      6.90716703	      2.17141989	      1.00260844	      1.00227204	     30.66324509	     -9.82668884	    -11.40502286	     93.94117980	      1.63958289	     -5.02157693	     16.18026785	      0.37653507	     -0.78976443	     45.44832472	      0.79322291	     29.38418576
     13.51333333	     -5.42304805	      0.07326412	      6.12690647	      2.17237793	      1.00693747	      1.00197804	     31.68126701	     -9.15563765	    -11.71354592	     92.02411598	      1.60612382	     -4.17397489	     12.64277245	     -0.61208678	     -1.16838109	     43.27283291	      0.75525341	     28.46122934
     13.52000000	     -4.61520748	     -0.51892349	      5.50112349	      2.17371770	      1.01202512	      1.00147151	     32.08906247	     -8.64164737	    -12.34739567	     89.76737293	      1.56673622	     -3.37378155	      8.68509280	     -1.43964371	     -1.42420348	     40.81782026	      0.71240536	     26.95427875
     13.52666667	     -3.94771946	     -1.16224704	      4.85854021	      2.17530431	      1.01713017	      1.00108755	     32.47949212	     -8.01841093	    -13.05296108	     87.24367183	      1.52268933	     -2.61501501	      4.89320821	     -2.26670104	     -1.81825752	     38.30666310	      0.66857740	     24.74491494
     13.53333333	     -3.43492594	     -1.81148733	      4.18237435	      2.17711974	      1.02218915	      1.00090026	     32.88370498	     -7.30414839	    -13.76659447	     84.47902471	      1.47443713	     -1.95186644	      1.27679096	     -3.02955465	     -2.33090252	     35.72753772	      0.62356317	     21.98101157
     13.54000000	     -3.06200480	     -2.44583061	      3.54226658	      2.17909988	      1.02719222	      1.00084974	     33.27119921	     -6.56648674	    -14.55030733	     81.47378036	      1.42198572	     -1.40760390	     -2.11783646	     -3.71396087	     -2.89543852	     33.16290266	      0.57880184	     18.61329120
     13.54666667	     -2.90347140	     -3.01135810	      2.92086589	      2.18118718	      1.03197941	      1.00096295	     33.74750899	     -5.83338370	    -15.31836011	     78.25710166	      1.36584409	     -0.98305518	     -5.18106547	     -4.26656749	     -3.51460694	     30.66537170	      0.53521170	     14.72519348
     13.55333333	     -2.95882690	     -3.51571088	      2.33364069	      2.18329435	      1.03654199	      1.00127847	     34.31781687	     -5.08474350	    -16.07558251	     74.82051510	      1.30586434	     -0.68056520	     -7.85714410	     -4.72602193	     -4.17726187	     28.31340547	      0.49416215	     10.39643095
     13.56000000	     -3.19488082	     -3.94750007	      1.71744548	      2.18546114	      1.04087851	      1.00178192	     34.95348648	     -4.29224902	    -16.73504288	     71.16305177	      1.24202956	     -0.50625719	    -10.18274982	     -5.07957091	     -4.94308143	     26.13194750	      0.45608852	      5.76829159
